<!-- wwwroot/icons.svg -->
<svg xmlns="http://www.w3.org/2000/svg" style="display: none;">
	<symbol id="account-icon" viewBox="0 -960 960 960">
		<path d="M186.67-186.67v-586.66 209-28.34V-186.67Zm91.33-260h242.8q2.2-18 7.53-34.66 5.34-16.67 14.67-32H278v66.66Zm0 167.34h184.33q17-16 37.34-26.5Q520-316.33 542-323.67q-1.33-5-2.33-10.83T538-346H278v66.67ZM278-614h404v-66.67H278V-614Zm-91.33 494q-27 0-46.84-19.83Q120-159.67 120-186.67v-586.66q0-27 19.83-46.84Q159.67-840 186.67-840h586.66q27 0 46.84 19.83Q840-800.33 840-773.33v316q-4.67-33.34-22.33-61-17.67-27.67-44.34-46v-209H186.67v586.66h232.66q-.33 3.5-.5 7-.16 3.5-.16 7V-120h-232Zm496-214q-40.32 0-68.16-27.84-27.84-27.84-27.84-68.16 0-40.32 27.84-68.16Q642.35-526 682.67-526q40.32 0 68.16 27.84 27.84 27.84 27.84 68.16 0 40.32-27.84 68.16Q722.99-334 682.67-334ZM485.33-120v-52.67q0-25.33 11.5-44.5 11.5-19.16 32.5-28.83 36.67-17.67 74.84-26.17 38.16-8.5 78.5-8.5 40.33 0 78.5 8.17 38.16 8.17 74.83 26.5 21 9 32.5 28.5t11.5 44.83V-120H485.33Z"/>
	</symbol>

	<symbol id="forum-icon" viewBox="0 -960 960 960">
		<path d="M880-80.67 720.67-240h-414q-27.5 0-47.09-19.58Q240-279.17 240-306.67v-66.66h440q27.5 0 47.08-19.59 19.59-19.58 19.59-47.08v-280h66.66q27.5 0 47.09 19.58Q880-680.83 880-653.33v572.66ZM146.67-441l65.66-65.67h401v-306.66H146.67V-441ZM80-280v-533.33q0-27.5 19.58-47.09Q119.17-880 146.67-880h466.66q27.5 0 47.09 19.58Q680-840.83 680-813.33v306.66q0 27.5-19.58 47.09Q640.83-440 613.33-440H240L80-280Zm66.67-226.67v-306.66 306.66Z"/>
	</symbol>

	<symbol id="user-icon" viewBox="0 -960 960 960">
		<path d="M226-262q59-42.33 121.33-65.5 62.34-23.17 132.67-23.17 70.33 0 133 23.17T734.67-262q41-49.67 59.83-103.67T813.33-480q0-141-96.16-237.17Q621-813.33 480-813.33t-237.17 96.16Q146.67-621 146.67-480q0 60.33 19.16 114.33Q185-311.67 226-262Zm253.88-184.67q-58.21 0-98.05-39.95Q342-526.58 342-584.79t39.96-98.04q39.95-39.84 98.16-39.84 58.21 0 98.05 39.96Q618-642.75 618-584.54t-39.96 98.04q-39.95 39.83-98.16 39.83ZM480.31-80q-82.64 0-155.64-31.5-73-31.5-127.34-85.83Q143-251.67 111.5-324.51T80-480.18q0-82.82 31.5-155.49 31.5-72.66 85.83-127Q251.67-817 324.51-848.5T480.18-880q82.82 0 155.49 31.5 72.66 31.5 127 85.83Q817-708.33 848.5-635.65 880-562.96 880-480.31q0 82.64-31.5 155.64-31.5 73-85.83 127.34Q708.33-143 635.65-111.5 562.96-80 480.31-80Zm-.31-66.67q54.33 0 105-15.83t97.67-52.17q-47-33.66-98-51.5Q533.67-284 480-284t-104.67 17.83q-51 17.84-98 51.5 47 36.34 97.67 52.17 50.67 15.83 105 15.83Zm0-366.66q31.33 0 51.33-20t20-51.34q0-31.33-20-51.33T480-656q-31.33 0-51.33 20t-20 51.33q0 31.34 20 51.34 20 20 51.33 20Zm0-71.34Zm0 369.34Z"/>
	</symbol>
</svg>